<?xml version="1.0" encoding="UTF-8"?>
<svg enable-background="new 0 0 512 512" version="1.1" viewBox="0 0 512 512" xmlns="http://www.w3.org/2000/svg" xmlns:cc="http://creativecommons.org/ns#" xmlns:dc="http://purl.org/dc/elements/1.1/" xmlns:rdf="http://www.w3.org/1999/02/22-rdf-syntax-ns#">
<metadata>
<rdf:RDF>
<cc:Work rdf:about="">
<dc:format>image/svg+xml</dc:format>
<dc:type rdf:resource="http://purl.org/dc/dcmitype/StillImage"/>
<dc:title/>
</cc:Work>
</rdf:RDF>
</metadata>
<g stroke-width="1.0016">
<g stroke-width="1.0016">
<path d="m378.14 348.39c-252.09-232.26-126.05-116.13 0 0zm0 0c-7.1013 1.0206-14.356 1.5606-21.734 1.5606-11.372 0-22.453-1.266-33.121-3.6445-18.711 14.231-42.032 22.695-67.285 22.695-61.4 0-111.4-50-111.4-111.4 0-45.003 26.863-83.878 65.385-101.43 5.1014-17.928 13.42-34.516 24.282-49.105-73.647 10.585-130.47 74.117-130.47 150.64 0 83.9 68.299 152.2 152.2 152.2 49.952 0 94.37-24.213 122.14-61.512zm-168.16-192.22c-3.7624 13.222-5.7774 27.172-5.7774 41.582 0 72.528 51.043 133.39 119.08 148.56 13.047-9.9232 23.848-22.651 31.498-37.277-60.655-0.87309-109.78-50.522-109.78-111.38 0-18.537 4.5628-36.031 12.615-51.428-16.573 0.47651-34.61 4.1326-47.639 9.9453z" stroke-width="1.0016"/>
</g>
</g>
<path d="m234.27 107.06c25.731-4.1098 31.26 21.424 23.357 39.16l-47.639 9.9453 1.1773-23.95z"/>
<path d="m323.29 346.3 31.498-37.277c20.564-0.27099 34.635 24.786 23.357 39.361l-31.006 12.837z"/>
</svg>
