<?xml version="1.0" encoding="UTF-8"?>
<!DOCTYPE svg  PUBLIC '-//W3C//DTD SVG 1.1//EN'  'http://www.w3.org/Graphics/SVG/1.1/DTD/svg11.dtd'>
<svg enable-background="new 0 0 512 512" version="1.1" viewBox="0 0 512 512" xmlns="http://www.w3.org/2000/svg">
<path d="m256 105.5c-83.9 0-152.2 68.3-152.2 152.2s68.3 152.2 152.2 152.2 152.2-68.3 152.2-152.2c0-84-68.3-152.2-152.2-152.2zm0 263.5c-61.4 0-111.4-50-111.4-111.4s50-111.4 111.4-111.4 111.4 50 111.4 111.4-50 111.4-111.4 111.4z"/>
<path d="m256 74.8c11.3 0 20.4-9.1 20.4-20.4v-23c0-11.3-9.1-20.4-20.4-20.4s-20.4 9.1-20.4 20.4v23c2.8422e-14 11.3 9.1 20.4 20.4 20.4z"/>
<path d="m256 437.2c-11.3 0-20.4 9.1-20.4 20.4v22.9c0 11.3 9.1 20.4 20.4 20.4s20.4-9.1 20.4-20.4v-22.9c0-11.2-9.1-20.4-20.4-20.4z"/>
<path d="m480.6 235.6h-23c-11.3 0-20.4 9.1-20.4 20.4s9.1 20.4 20.4 20.4h23c11.3 0 20.4-9.1 20.4-20.4s-9.1-20.4-20.4-20.4z"/>
<path d="m54.4 235.6h-23c-11.3 0-20.4 9.1-20.4 20.4s9.1 20.4 20.4 20.4h22.9c11.3 0 20.4-9.1 20.4-20.4 0.1-11.3-9.1-20.4-20.3-20.4z"/>
<path d="m400.4 82.8-16.3 16.2c-8 8-8 20.9 0 28.9s20.9 8 28.9 0l16.2-16.2c8-8 8-20.9 0-28.9s-20.9-8-28.8 0z"/>
<path d="m99 384.1-16.2 16.2c-8 8-8 20.9 0 28.9s20.9 8 28.9 0l16.2-16.2c8-8 8-20.9 0-28.9s-20.9-7.9-28.9 0z"/>
<path d="m413 384.1c-8-8-20.9-8-28.9 0s-8 20.9 0 28.9l16.2 16.2c8 8 20.9 8 28.9 0s8-20.9 0-28.9l-16.2-16.2z"/>
<path d="m99 127.9c8 8 20.9 8 28.9 0s8-20.9 0-28.9l-16.2-16.2c-8-8-20.9-8-28.9 0s-8 20.9 0 28.9l16.2 16.2z"/>
</svg>
